<?xml version="1.0" standalone="no"?>
<!DOCTYPE svg PUBLIC "-//W3C//DTD SVG 20010904//EN"
 "http://www.w3.org/TR/2001/REC-SVG-20010904/DTD/svg10.dtd">
<svg version="1.0" xmlns="http://www.w3.org/2000/svg"
 width="512.000000pt" height="512.000000pt" viewBox="0 0 512.000000 512.000000"
 preserveAspectRatio="xMidYMid meet">
<metadata>
Created by potrace 1.14, written by Peter Selinger 2001-2017
</metadata>
<g transform="translate(0.000000,512.000000) scale(0.100000,-0.100000)"
fill="#000000" stroke="none">
<path d="M330 4843 c-65 -23 -143 -106 -161 -171 -12 -43 -14 -308 -14 -1680
l0 -1628 30 -59 c19 -37 46 -72 73 -92 82 -62 70 -62 902 -62 415 0 758 0 761
0 3 -1 -60 -131 -140 -291 l-145 -290 -183 0 -183 0 0 -155 0 -155 1289 0
1288 0 0 155 0 155 -181 0 -181 0 -146 290 -147 290 37 1 c20 0 362 0 761 0
799 0 790 0 872 62 27 20 54 55 73 92 l30 59 0 1645 0 1646 -24 47 c-30 59
-72 103 -125 131 l-41 22 -2200 2 c-1987 1 -2204 0 -2245 -14z"/>
</g>
</svg>
